<?xml version="1.0" encoding="UTF-8" standalone="no"?>
<!DOCTYPE svg PUBLIC "-//W3C//DTD SVG 1.1//EN"
 "http://www.w3.org/Graphics/SVG/1.1/DTD/svg11.dtd">
<!-- Generated by graphviz version 2.38.0 (20140413.2041)
 -->
<!-- Title: G Pages: 1 -->
<svg width="603pt" height="348pt"
 viewBox="0.00 0.00 602.99 348.00" xmlns="http://www.w3.org/2000/svg" xmlns:xlink="http://www.w3.org/1999/xlink">
<g id="graph0" class="graph" transform="scale(1 1) rotate(0) translate(4 344)">
<title>G</title>
<polygon fill="white" stroke="none" points="-4,4 -4,-344 598.987,-344 598.987,4 -4,4"/>
<g id="clust1" class="cluster"><title>cluster_Global</title>
<path fill="none" stroke="gray" d="M20,-44C20,-44 574.987,-44 574.987,-44 580.987,-44 586.987,-50 586.987,-56 586.987,-56 586.987,-320 586.987,-320 586.987,-326 580.987,-332 574.987,-332 574.987,-332 20,-332 20,-332 14,-332 8,-326 8,-320 8,-320 8,-56 8,-56 8,-50 14,-44 20,-44"/>
<text text-anchor="middle" x="297.494" y="-319.2" font-family="Times,serif" font-size="11.00" fill="gray">Global</text>
</g>
<!-- \\XmlDomConstruct -->
<g id="node1" class="node"><title>\\XmlDomConstruct</title>
<polygon fill="none" stroke="black" points="551.987,-142 433.987,-142 433.987,-106 551.987,-106 551.987,-142"/>
<text text-anchor="middle" x="492.987" y="-121.2" font-family="Courier,monospace" font-size="11.00">XmlDomConstruct</text>
</g>
<!-- \\DOMDocument -->
<g id="node8" class="node"><title>\\DOMDocument</title>
<ellipse fill="none" stroke="black" cx="263.494" cy="-18" rx="71.4873" ry="18"/>
<text text-anchor="middle" x="263.494" y="-14.3" font-family="Times,serif" font-size="14.00" fill="gray">\DOMDocument</text>
</g>
<!-- \\XmlDomConstruct&#45;&gt;\\DOMDocument -->
<g id="edge1" class="edge"><title>\\XmlDomConstruct&#45;&gt;\\DOMDocument</title>
<path fill="none" stroke="black" d="M433.682,-108.585C424.519,-105.287 415.327,-101.433 406.987,-97 370.949,-77.8422 371.074,-59.0665 334.987,-40 331.289,-38.046 327.389,-36.2327 323.397,-34.5561"/>
<polygon fill="none" stroke="black" points="324.561,-31.2533 313.972,-30.8898 322.023,-37.7771 324.561,-31.2533"/>
</g>
<!-- \\SaltyDatabase -->
<g id="node2" class="node"><title>\\SaltyDatabase</title>
<polygon fill="none" stroke="black" points="120,-250 16,-250 16,-214 120,-214 120,-250"/>
<text text-anchor="start" x="34" y="-235.2" font-family="Courier,monospace" font-size="11.00">«abstract»</text>
<text text-anchor="start" x="24" y="-223.2" font-family="Courier,monospace" font-size="11.00">SaltyDatabase</text>
</g>
<!-- \\SaltyDatabaseManager -->
<g id="node3" class="node"><title>\\SaltyDatabaseManager</title>
<polygon fill="none" stroke="black" points="568.987,-250 416.987,-250 416.987,-214 568.987,-214 568.987,-250"/>
<text text-anchor="middle" x="492.987" y="-229.2" font-family="Courier,monospace" font-size="11.00">SaltyDatabaseManager</text>
</g>
<!-- \\SaltyMySQLDatabase -->
<g id="node4" class="node"><title>\\SaltyMySQLDatabase</title>
<polygon fill="none" stroke="black" points="332.494,-250 194.494,-250 194.494,-214 332.494,-214 332.494,-250"/>
<text text-anchor="middle" x="263.494" y="-229.2" font-family="Courier,monospace" font-size="11.00">SaltyMySQLDatabase</text>
</g>
<!-- \\SaltyMySQLDatabase&#45;&gt;\\SaltyDatabase -->
<g id="edge2" class="edge"><title>\\SaltyMySQLDatabase&#45;&gt;\\SaltyDatabase</title>
<path fill="none" stroke="black" d="M194.275,-232C173.425,-232 150.634,-232 130.276,-232"/>
<polygon fill="none" stroke="black" points="130.186,-228.5 120.186,-232 130.186,-235.5 130.186,-228.5"/>
</g>
<!-- \\SaltyMySQLDatabaseSafe -->
<g id="node5" class="node"><title>\\SaltyMySQLDatabaseSafe</title>
<polygon fill="none" stroke="black" points="575.487,-196 410.487,-196 410.487,-160 575.487,-160 575.487,-196"/>
<text text-anchor="middle" x="492.987" y="-175.2" font-family="Courier,monospace" font-size="11.00">SaltyMySQLDatabaseSafe</text>
</g>
<!-- \\SaltyMySQLDatabaseSafe&#45;&gt;\\SaltyMySQLDatabase -->
<g id="edge3" class="edge"><title>\\SaltyMySQLDatabaseSafe&#45;&gt;\\SaltyMySQLDatabase</title>
<path fill="none" stroke="black" d="M415.919,-196.056C392.41,-201.637 366.481,-207.791 342.823,-213.407"/>
<polygon fill="none" stroke="black" points="341.757,-210.063 332.836,-215.778 343.374,-216.873 341.757,-210.063"/>
</g>
<!-- \\SaltyMySQLDatabaseProxy -->
<g id="node6" class="node"><title>\\SaltyMySQLDatabaseProxy</title>
<polygon fill="none" stroke="black" points="578.987,-304 406.987,-304 406.987,-268 578.987,-268 578.987,-304"/>
<text text-anchor="middle" x="492.987" y="-283.2" font-family="Courier,monospace" font-size="11.00">SaltyMySQLDatabaseProxy</text>
</g>
<!-- \\SaltyMySQLDatabaseProxy&#45;&gt;\\SaltyMySQLDatabase -->
<g id="edge4" class="edge"><title>\\SaltyMySQLDatabaseProxy&#45;&gt;\\SaltyMySQLDatabase</title>
<path fill="none" stroke="black" d="M415.919,-267.944C392.41,-262.363 366.481,-256.209 342.823,-250.593"/>
<polygon fill="none" stroke="black" points="343.374,-247.127 332.836,-248.222 341.757,-253.937 343.374,-247.127"/>
</g>
<!-- \\SaltyDatabaseFactory -->
<g id="node7" class="node"><title>\\SaltyDatabaseFactory</title>
<polygon fill="none" stroke="black" points="568.987,-88 416.987,-88 416.987,-52 568.987,-52 568.987,-88"/>
<text text-anchor="middle" x="492.987" y="-67.2" font-family="Courier,monospace" font-size="11.00">SaltyDatabaseFactory</text>
</g>
</g>
</svg>
